<?xml version="1.0" encoding="utf-8"?>
<!-- Generator: Adobe Illustrator 25.0.0, SVG Export Plug-In . SVG Version: 6.00 Build 0)  -->
<svg version="1.1" id="Layer_1" xmlns="http://www.w3.org/2000/svg" xmlns:xlink="http://www.w3.org/1999/xlink" x="0px" y="0px"
	 viewBox="0 0 612 792" style="enable-background:new 0 0 612 792;" xml:space="preserve">
<style type="text/css">
	.st0{fill:#887272;}
	.st1{fill:#070707;}
	.st2{fill:#131313;}
	.st3{fill:#090808;}
	.st4{fill:#121212;}
	.st5{fill:#020202;}
	.st6{fill:#570809;}
	.st7{fill:#D70808;}
	.st8{fill:#890808;}
	.st9{fill:#A82020;}
	.st10{fill:#AC2A2E;}
	.st11{fill:#772124;}
	.st12{fill:#390C0D;}
	.st13{fill:#180A0A;}
	.st14{fill:#FCFCFC;}
</style>
<g>
	<path class="st0" d="M194.86,307.28c0.61,1.67-0.27,2.96-0.27,4.89c-1.65-0.2-3.3-0.4-5.06-0.62
		C190.13,308.36,193.03,308.5,194.86,307.28z"/>
	<path class="st1" d="M601.16,337.1c-0.16,31.8-24.6,57.02-55.13,56.89c-30.25-0.13-54.69-26.07-54.35-57.7
		c0.34-32.13,24.9-57.12,55.89-56.9C577.13,279.61,601.32,305.66,601.16,337.1z M589.1,336.29c-0.1-24.92-19.27-45.12-42.78-45.08
		c-23.4,0.03-42.55,20.43-42.57,45.35c-0.02,24.99,19.8,45.93,43.18,45.61C570.15,381.85,589.2,361.13,589.1,336.29z"/>
	<path class="st2" d="M99.52,324.23c0-11.28-0.03-22.55,0.01-33.83c0.01-4.14-1.51-8.44,6.06-8.42c7.05,0.02,6.44,3.45,6.43,8.07
		c-0.04,22.79-0.19,45.59,0.27,68.38c0.28,13.63,8.23,22.26,20.95,24.35c14.89,2.45,28.48-7.66,28.94-22.77
		c0.73-23.75,0.63-47.53,0.51-71.3c-0.02-5.04,1.19-6.54,6.41-6.63c5.4-0.09,5.83,2.14,5.8,6.46c-0.15,22.79,0.07,45.59-0.12,68.39
		c-0.15,18.63-10.95,32.94-27.5,37.1c-16.75,4.21-34.05-2.75-42.62-17c-5.35-8.89-4.59-18.85-5.07-28.54
		C99.2,340.42,99.52,332.32,99.52,324.23z"/>
	<path class="st3" d="M329.77,327.46c7.02-16.88,14.04-33.77,21.59-51.92c7.81,19.06,15.17,36.96,22.49,54.88
		c7.38,18.07,14.84,36.11,21.92,54.3c0.78,2,5.01,5.92,0.36,6.91c-3.57,0.76-9.47,3.52-12.03-2.9c-2.99-7.48-6.17-14.89-8.76-22.51
		c-1.53-4.5-4.02-5.83-8.62-5.69c-10.52,0.34-21.07,0.29-31.6,0.02c-4.44-0.11-7.09,0.74-8.6,5.55c-2.19,6.95-5.42,13.58-8.19,20.35
		c-1.95,4.77-9.21,7.7-13.52,5.46c-2.56-1.33-0.61-2.84-0.15-4.21c3.3-9.66,12.07-30.75,12.07-30.75c1.54-4.21,3.07-8.43,4.61-12.64
		C326.2,339.72,326.64,332.91,329.77,327.46z M335.6,345.88c-1.42,1.69-1.89,2.94,1.15,2.93c9.04-0.03,18.09-0.15,27.13,0.06
		c4.05,0.1,3.76-1.82,2.71-4.44c-4.99-12.52-10.01-25.03-15.61-39.02c-3.49,9.29-6.46,17.2-9.43,25.12
		C338.7,335.31,336.63,340.39,335.6,345.88z"/>
	<path class="st2" d="M30.33,337.4c0-16.4,0.2-32.81-0.12-49.21c-0.1-4.97,1.49-6.26,6.21-5.97c9.02,0.55,18.12-0.65,27.07,1.47
		c14.01,3.32,22.74,15.57,22.22,31.3c-0.51,15.49-10.33,27.16-24.75,29.22c-3.62,0.52-7.36,1.06-10.95,0.7
		c-5.93-0.6-8.12,1.09-7.82,7.47c0.56,11.73-0.11,23.51,0.29,35.25c0.17,4.89-1.69,5.58-5.91,5.56c-4.34-0.02-6.5-0.51-6.38-5.84
		C30.58,370.71,30.33,354.05,30.33,337.4z M49.38,294.23c-5.15-1.26-7.8,0.41-7.22,7.41c0.72,8.72,0.12,17.55,0.22,26.33
		c0.02,1.74-0.83,3.83,1.78,4.94c11.18,4.73,27.84-4.65,29.33-16.62C75.23,302.32,67.64,295.1,49.38,294.23z"/>
	<path class="st4" d="M427,343.14c0,13.95-0.19,27.91,0.1,41.85c0.1,5-0.5,7.42-6.54,7.36c-5.82-0.06-6.1-2.59-6.07-7.1
		c0.14-28.39-0.08-56.79,0.2-85.18c0.06-5.76-1.52-7.91-7.32-7.19c-3.62,0.45-7.43-0.44-10.99,0.19c-7.59,1.35-7.65-3-7.37-8.4
		c0.16-3,1.47-3.65,4.1-3.64c18.36,0.06,36.73,0.17,55.09-0.05c5.66-0.07,3.86,3.7,4.02,6.46c0.16,2.78,1,6.05-4.01,5.62
		c-4.62-0.4-9.36,0.4-13.93-0.2c-6.48-0.84-7.58,1.87-7.41,7.7C427.29,314.74,427,328.95,427,343.14z"/>
	<path class="st5" d="M463.98,335.99c0-15.9,0.1-31.8-0.06-47.69c-0.05-4.57-0.19-7.59,6.25-7.45c5.94,0.13,5.93,2.75,5.91,7.11
		c-0.12,32.53-0.17,65.06,0.05,97.59c0.03,4.98-1.08,6.68-6.37,6.67c-5.1-0.01-5.94-1.81-5.87-6.34
		C464.13,369.26,463.98,352.62,463.98,335.99z"/>
	<path class="st6" d="M281.23,456.01c-0.45,16.14-0.9,32.29-1.36,48.43c-0.72,0.02-1.44,0.04-2.16,0.07
		c-0.61-6.29-1.24-12.58-1.82-18.87c-1.55-16.81-3.71-33.6-4.36-50.44c-0.31-8.04-3.16-11.45-10.67-11.89
		c0.09-3.23,0.18-6.47,0.27-9.7c4.31,0.91,8.61,1.81,12.92,2.72c0.3,1.87,0.43,3.79,0.93,5.61
		C278.1,433.11,277.49,444.96,281.23,456.01z"/>
	<path class="st5" d="M219.48,392.8c-6.11,0.06-12.25-0.24-18.32,0.29c-5.18,0.45-5.99-1.73-5.95-6.25
		c0.19-22.24,0.11-44.48,0.06-66.72c-0.01-2.65-0.44-5.31-0.68-7.96c0.35-1.64-0.36-3.33,0.27-4.89c0.15-6.8,0.69-13.62,0.32-20.39
		c-0.29-5.26,2.79-4.58,5.98-4.55c3.11,0.02,6.51-0.82,6.04,4.45c-0.41,4.59-0.15,9.24-0.19,13.86c0.03,5.15,0.07,10.3,0.1,15.46
		c0,19.52,0.25,39.04-0.16,58.56c-0.12,5.73,1.69,7.06,6.96,6.65c5.82-0.45,11.72,0.09,17.56-0.18c3.42-0.15,5.06,0.85,4.65,4.4
		c0.84,6.11-2.61,7.8-7.87,7.64c-1.88-0.04-3.77-0.09-5.65-0.13C221.56,392.96,220.52,392.88,219.48,392.8z"/>
	<path class="st7" d="M222.6,393.04c1.88,0.04,3.77,0.09,5.65,0.13c0.45,2.74,3.53,4.27,3.36,7.29c-2.39,1.54-4.77,3.08-7.85,5.08
		c4,0.98,7.22,1.77,10.43,2.56c-0.59,3.24-3.64,6.51,0.13,9.69c-13.79-2.58-27.58-5.15-43.73-8.17
		c11.42-5.83,20.86-10.65,30.31-15.46C221.47,393.79,222.03,393.42,222.6,393.04z"/>
	<path class="st8" d="M243.24,298.73c-3.78,2.49-7.56,4.99-12.01,7.93c4.51,1.25,8.28,2.29,12.05,3.33c2.12,4.31,4.5,8.58,1.4,13.43
		c-4.41-0.97-8.82-1.94-13.23-2.92c0.49-3.02-4-1.12-3.65-3.43c1.25-8.31-2.27-16.12-2.24-24.28c5.3-2.68,10.29-6.01,16.11-7.59
		C239.85,289.99,243.05,294.18,243.24,298.73z"/>
	<path class="st9" d="M225.55,292.79c-0.03,8.16,3.49,15.97,2.24,24.28c-0.35,2.31,4.15,0.4,3.65,3.43
		c-8.27-0.61-15.91-4.66-24.34-4.39c-0.03-5.15-0.07-10.31-0.1-15.46C213.72,299.28,219.06,294.68,225.55,292.79z"/>
	<path class="st10" d="M290.18,239.7c12.25,2.87,24.5,5.74,38.58,9.04c-10.67,5.62-18.67,11.97-28.19,15.76
		c-0.31-2.45,0.99-5.24-1.55-7.22c1.97-1.29,3.94-2.58,6.92-4.52c-4.87-1.26-8.85-2.29-12.84-3.32
		C292.12,246.2,291.15,242.95,290.18,239.7z"/>
	<path class="st10" d="M329.77,327.46c-3.14,5.45-3.57,12.26-8.45,16.84c-0.34-0.33-0.68-0.66-1.02-0.99
		c1.53-2.47-0.76-2.04-1.85-2.34c-5.03-1.4-10.08-2.73-15.13-4.08c3.74-5.24,2.66-10.05-1.3-14.61
		C311.27,324,320.52,325.73,329.77,327.46z"/>
	<path class="st11" d="M302.02,322.27c3.95,4.56,5.04,9.37,1.3,14.61c-6.4-1-12.83-1.91-18.9-4.34c2.92-5.14-1-9.59-1.45-14.39
		C289.32,319.52,295.67,320.9,302.02,322.27z"/>
	<path class="st8" d="M231.62,400.47c0.17-3.02-2.91-4.55-3.36-7.29c5.26,0.16,8.71-1.53,7.87-7.64c6.72-3.07,13.45-6.14,20.17-9.21
		c-1.43,4.12-0.91,7.51,3.56,9.4C250.78,391.28,241.33,396.12,231.62,400.47z"/>
	<path class="st11" d="M290.18,239.7c0.97,3.25,1.94,6.5,2.92,9.75c-8.38-1.55-16.86-2.59-25.01-5.24c7.11-0.93,0.82-6.57,3.23-9.15
		C277.82,235.7,284.04,237.54,290.18,239.7z"/>
	<path class="st11" d="M307.91,360.18c-5.82,3.42-11.28,7.49-17.72,9.81c2.23-3.66,1.41-7.34,0.03-11.01
		c5.6-3.47,11.14-7.05,17.53-9C310.67,353.34,309.59,356.75,307.91,360.18z"/>
	<path class="st12" d="M281.23,456.01c-3.75-11.05-3.14-22.9-6.24-34.07c-0.5-1.82-0.63-3.74-0.93-5.61
		c7.25-0.64,9.79,2.22,8.86,9.76C281.71,435.98,281.74,446.03,281.23,456.01z"/>
	<path class="st13" d="M259.37,276.48c4.97-3.31,10.4-5.66,16-7.66c1.82,3.02-0.14,6.79,1.92,9.77c-4.46,3.33-9.15,6.26-14.25,8.52
		C258.11,284.84,259.97,280.23,259.37,276.48z"/>
	<path class="st13" d="M290.22,358.98c1.38,3.67,2.2,7.35-0.03,11.01c-5.34,2.76-10.68,5.52-16.02,8.27
		c-0.11-3.66-0.22-7.32-0.33-10.98C279.04,363.99,284.43,361.1,290.22,358.98z"/>
	<path class="st6" d="M244.68,323.42c3.11-4.85,0.72-9.13-1.4-13.43c4.99,0.45,9.9,1.28,14.57,3.17c0.77,4.49,2.7,8.86,1.42,13.56
		C254.23,326.41,249.42,325.06,244.68,323.42z"/>
	<path class="st6" d="M243.24,298.73c-0.2-4.55-3.39-8.74-1.57-13.52c3.63-2.53,7.49-4.6,11.77-5.81
		c-0.94,4.37,1.03,8.41,1.46,12.62C251.01,294.25,247.13,296.49,243.24,298.73z"/>
	<path class="st8" d="M261.14,413.61c-0.09,3.23-0.18,6.47-0.27,9.7c-4.9-0.97-9.8-1.94-14.71-2.9c-2.15-3.06-1.74-6.86-2.93-10.2
		c5.38,1.08,10.76,2.15,16.14,3.23c0.53,0.7,1.11,0.87,1.78,0.19L261.14,413.61z"/>
	<path class="st6" d="M259.85,385.72c-4.47-1.89-4.99-5.28-3.56-9.4c3.48-1.81,6.96-3.63,10.44-5.44c1.02,3.38,1.75,6.81,1.57,10.37
		C265.88,383.47,262.92,384.71,259.85,385.72z"/>
	<path class="st10" d="M316.71,356.94c0,0-5.39,3.95-8.8,3.23c1.68-3.43,2.76-6.84-0.16-10.19c3.7-3.14,8.29-4.61,12.56-6.68
		c0.34,0.33,0.68,0.66,1.02,0.99C319.78,348.51,318.25,352.73,316.71,356.94"/>
	<path class="st9" d="M243.24,410.2c1.19,3.34,0.78,7.14,2.93,10.2c-3.95-0.87-7.9-1.73-11.84-2.6c-3.76-3.18-0.72-6.45-0.13-9.69
		C237.2,408.84,240.52,408.24,243.24,410.2z"/>
	<path class="st9" d="M299.02,257.29c2.54,1.97,1.24,4.77,1.55,7.22c-3.31,2.07-6.62,4.14-9.92,6.21c-1.66-2.67-1.86-5.65-1.78-8.68
		C292.07,260.08,295.07,257.68,299.02,257.29z"/>
	<path class="st12" d="M259.27,326.72c1.28-4.7-0.65-9.07-1.42-13.56c3.02-0.13,5.93,0.28,8.65,1.68
		c-2.28,4.61-0.03,9.17,0.14,13.75C264.18,327.99,261.45,328.43,259.27,326.72z"/>
	<path class="st12" d="M254.9,292.02c-0.43-4.21-2.4-8.25-1.46-12.62c1.76-1.42,3.63-2.6,5.93-2.92c0.6,3.76-1.26,8.36,3.67,10.62
		C260.32,288.74,257.61,290.38,254.9,292.02z"/>
	<path class="st6" d="M277.29,278.58c-2.06-2.98-0.1-6.75-1.92-9.77c2.14-2.03,4.82-2.96,7.58-3.74c0.44,3.18,0.89,6.36,1.33,9.55
		C281.94,275.94,279.62,277.26,277.29,278.58z"/>
	<path class="st13" d="M266.64,328.59c-0.17-4.58-2.42-9.15-0.14-13.75c1.12,0.22,2.23,0.45,3.35,0.67
		c2.25,4.51,1.9,9.51,2.71,14.29c-0.97-0.17-1.93-0.34-2.9-0.51c-0.75-0.78-1.63-0.98-2.63-0.54L266.64,328.59z"/>
	<path class="st12" d="M282.96,318.15c0.45,4.8,4.38,9.25,1.45,14.39c-1.56-0.29-3.12-0.58-4.68-0.87c1.96-4.64-3.08-9.3,0.05-13.93
		C280.85,317.87,281.91,318.01,282.96,318.15z"/>
	<path class="st12" d="M268.31,381.24c0.17-3.56-0.56-6.99-1.57-10.37c2.12-1.7,4.44-2.99,7.11-3.59c0.11,3.66,0.22,7.32,0.33,10.98
		C272.56,379.94,270.5,380.72,268.31,381.24z"/>
	<path class="st11" d="M284.27,274.62c-0.44-3.18-0.89-6.36-1.33-9.55c1.97-1.01,3.94-2.03,5.91-3.04
		c-0.08,3.03,0.12,6.01,1.78,8.68C288.93,272.69,286.62,273.68,284.27,274.62z"/>
	<path class="st13" d="M279.79,317.74c-3.12,4.63,1.91,9.29-0.05,13.93c-2.23-0.57-4.46-1.14-6.69-1.71
		c2.66-1.13,4.42-2.57,2.88-5.89c-1.09-2.37-1.29-4.94-0.4-7.5C276.95,316.96,278.37,317.35,279.79,317.74z"/>
	<path class="st5" d="M275.53,316.57c-0.89,2.55-0.69,5.13,0.4,7.5c1.53,3.32-0.22,4.76-2.88,5.89c0,0-0.48-0.17-0.48-0.17
		c-0.81-4.78-0.47-9.78-2.71-14.29C271.74,315.86,273.64,316.22,275.53,316.57z"/>
	<path class="st12" d="M249.27,220.54c2.08,6.66,3.53,13.41,2.76,20.45c-4,0.39-3.24-2.59-3.22-4.78
		C248.87,230.99,249.11,225.77,249.27,220.54z"/>
	<path class="st13" d="M271.31,235.06c0,0-0.28,0-1.63-0.61c-7.92-0.55-10.46-4.88-11.04-12.78c-1.47-19.91-4.1-39.74-6.26-59.6
		c-2.73,11.92-1.86,24.11-2.59,36.18c-0.69,1.1-0.71,2.23-0.18,3.39c-0.11,4.3-0.22,8.59-0.33,12.89c-0.05,0.56-0.1,1.11-0.15,1.67
		c0.05,1.45,0.1,2.9,0.15,4.35c2.08,6.66,3.53,13.41,2.76,20.45c5.16,2.03,10.61,2.6,16.05,3.22
		C275.19,243.29,268.9,237.64,271.31,235.06z"/>
	<path class="st6" d="M261.16,413.62c-0.67,0.67-1.26,0.51-1.78-0.19C259.97,413.49,260.56,413.56,261.16,413.62z"/>
	<path class="st14" d="M589.1,336.29c0.1,24.84-18.94,45.56-42.17,45.88c-23.38,0.32-43.2-20.62-43.18-45.61
		c0.02-24.91,19.17-45.31,42.57-45.35C569.83,291.17,588.99,311.37,589.1,336.29z"/>
	<path class="st14" d="M341.56,330.54c2.97-7.92,5.94-15.83,9.43-25.12c5.6,13.99,10.61,26.5,15.61,39.02
		c1.04,2.62,1.34,4.53-2.71,4.44c-9.04-0.21-18.08-0.09-27.13-0.06c-3.04,0.01-2.58-1.25-1.15-2.94
		c7.72-2.91,14.69-7.16,23.14-11.85C351.95,332.64,346.75,331.59,341.56,330.54z"/>
	<path class="st10" d="M341.56,330.54c5.2,1.05,10.39,2.11,17.19,3.49c-8.45,4.69-15.43,8.95-23.14,11.85
		C336.63,340.39,338.7,335.31,341.56,330.54z"/>
	<path class="st14" d="M49.38,294.23c18.26,0.87,25.85,8.09,24.11,22.05C72,328.25,55.34,337.63,44.16,332.9
		c-2.61-1.11-1.76-3.19-1.78-4.94c-0.1-8.78,0.5-17.6-0.22-26.33C41.58,294.64,44.23,292.97,49.38,294.23z"/>
	<path class="st14" d="M272.57,329.8c0,0,0.48,0.17,0.48,0.17c2.23,0.57,4.46,1.14,6.69,1.71c1.56,0.29,3.12,0.58,4.68,0.87
		c6.08,2.43,12.5,3.34,18.91,4.34c5.04,1.35,10.1,2.68,15.13,4.08c1.09,0.3,3.39-0.12,1.85,2.34c-4.27,2.07-8.86,3.54-12.56,6.68
		c-6.38,1.95-11.93,5.53-17.53,9c-5.79,2.12-11.18,5.02-16.38,8.3c-2.67,0.61-4.99,1.9-7.11,3.59c-3.48,1.81-6.96,3.63-10.44,5.44
		c-6.72,3.07-13.45,6.14-20.17,9.21c0.41-3.55-1.23-4.55-4.65-4.39c-5.85,0.26-11.74-0.28-17.56,0.18
		c-5.27,0.41-7.08-0.93-6.96-6.65c0.41-19.51,0.16-39.04,0.16-58.56c8.43-0.27,16.07,3.78,24.34,4.39
		c4.41,0.97,8.82,1.94,13.23,2.92c4.74,1.64,9.55,2.99,14.59,3.3c2.18,1.71,4.9,1.27,7.37,1.87c0,0,0.4,0.17,0.4,0.16
		c0.88,0.18,1.75,0.36,2.63,0.54C270.63,329.46,271.6,329.63,272.57,329.8z"/>
	<path class="st12" d="M269.67,329.29c-0.88-0.18-1.75-0.36-2.63-0.54C268.04,328.31,268.91,328.51,269.67,329.29z"/>
	<g>
		<path d="M329.11,426.27c-0.47,2.04-2.91,3.09-4.67,1.95c-3.44-2.22-8.87-1.43-9.14,3.5c0,7.11,16.39,4.14,16.39,18.3
			c1.55,20.34-29.58,15.52-24.52,4.95c0.93-1.95,3.67-2.33,5.09-0.71c3.52,4.01,10.78,4.01,11.09-2.74c0.01-0.29-0.01-0.6-0.08-0.88
			c-2.09-8.92-17.49-6.08-16.3-17.97C305.68,417.22,331.14,417.41,329.11,426.27z"/>
		<path d="M354.38,464.46c-27.05,0.85-26.81-45.36,0-44.43C381.18,419.1,381.43,465.31,354.38,464.46z M354.38,428.14
			c-15.73,0.14-16.7,27.79,0,28.2C371.08,455.94,370.11,428.28,354.38,428.14z"/>
		<path d="M389.98,456.18h5.09c1.74,0,3.15,1.41,3.15,3.15v0.85c0,1.74-1.41,3.15-3.15,3.15h-13.15c-1.74,0-3.15-1.41-3.15-3.15
			V424.3c0-1.74,1.41-3.15,3.15-3.15h1.75c1.74,0,3.15,1.41,3.15,3.15v28.72C386.82,454.76,388.23,456.18,389.98,456.18z"/>
		<path d="M403.9,421.15h1.89c1.71,0,3.12,1.35,3.16,3.05c0.25,10.26-4.34,31.65,6.58,33.05c0.26,0.03,0.54,0.03,0.8,0
			c10.91-1.36,6.35-22.82,6.59-33.05c0.04-1.71,1.45-3.05,3.16-3.05h1.88c1.76,0,3.18,1.43,3.15,3.19
			c-0.24,14.44,4.95,40.71-15.17,40.12c-20.11,0.62-14.95-25.7-15.18-40.13C400.72,422.57,402.14,421.15,403.9,421.15z"/>
		<path d="M447.24,463.34h-1.75c-1.74,0-3.15-1.41-3.15-3.15v-28.72c0-1.74-1.41-3.15-3.15-3.15h-2.02c-1.74,0-3.15-1.41-3.15-3.15
			v-0.85c0-1.74,1.41-3.15,3.15-3.15h18.41c1.74,0,3.15,1.41,3.15,3.15v0.85c0,1.74-1.41,3.15-3.15,3.15h-2.02
			c-1.74,0-3.15,1.41-3.15,3.15v28.72C450.4,461.93,448.98,463.34,447.24,463.34z"/>
		<path d="M466.59,463.34h-1.75c-1.74,0-3.15-1.41-3.15-3.15V424.3c0-1.74,1.41-3.15,3.15-3.15h1.75c1.74,0,3.15,1.41,3.15,3.15
			v35.88C469.74,461.93,468.33,463.34,466.59,463.34z"/>
		<path d="M494.08,464.46c-27.05,0.85-26.81-45.36,0-44.43C520.88,419.1,521.12,465.31,494.08,464.46z M494.08,428.14
			c-15.73,0.14-16.7,27.79,0,28.2C510.77,455.94,509.81,428.28,494.08,428.14z"/>
		<path d="M518.46,423.18c0-1.74,1.41-3.15,3.15-3.15h2.66c0.07,0,9.73,13.24,16.18,21.98c1.81,2.45,5.69,1.16,5.69-1.88V424.3
			c0-1.74,1.41-3.15,3.15-3.15h1.75c1.74,0,3.15,1.41,3.15,3.15v36.72c0,1.74-1.41,3.15-3.15,3.15h-2.65
			c-0.07,0-9.73-13.24-16.18-21.98c-1.81-2.45-5.69-1.16-5.69,1.88v16.11c0,1.74-1.41,3.15-3.15,3.15h-1.75
			c-1.74,0-3.15-1.41-3.15-3.15V423.18z"/>
		<path d="M582.09,426.27c-0.47,2.04-2.91,3.09-4.67,1.95c-3.44-2.22-8.87-1.43-9.14,3.5c0,7.11,16.39,4.14,16.39,18.3
			c1.55,20.34-29.58,15.52-24.52,4.95c0.93-1.95,3.67-2.33,5.09-0.71c3.52,4.01,10.78,4.01,11.09-2.74c0.01-0.29-0.01-0.6-0.08-0.88
			c-2.09-8.92-17.49-6.08-16.3-17.98C558.65,417.22,584.12,417.41,582.09,426.27z"/>
	</g>
</g>
</svg>
